<?xml version="1.0" encoding="UTF-8"?>
<svg width="25px" height="25px" viewBox="0 0 25 25" version="1.1" xmlns="http://www.w3.org/2000/svg" xmlns:xlink="http://www.w3.org/1999/xlink">
    <!-- Generator: Sketch 57 (83077) - https://sketch.com -->
    <title>Group 6</title>
    <desc>Created with Sketch.</desc>
    <g id="New-design" stroke="none" stroke-width="1" fill="none" fill-rule="evenodd">
        <g id="Pricing-page-redesign-v1" transform="translate(-708.000000, -616.000000)">
            <g id="Group-11" transform="translate(64.000000, 586.000000)">
                <g id="Group-6" transform="translate(644.000000, 30.000000)">
                    <path d="M12.5,25 C5.59644063,25 0,19.4035594 0,12.5 C0,5.59644063 5.59644063,0 12.5,0 C19.4035594,0 25,5.59644063 25,12.5 C25,19.4035594 19.4035594,25 12.5,25 Z" id="Path" fill="#302A73"></path>
                    <path d="M17.375,14.3304135 C18.8916667,9.77680449 19.65,7.5 19.65,7.5 C17.9295597,10.2073729 14.1108766,10.2073729 12.825,7.5 C11.5391234,10.2073729 7.72044028,10.2073729 6,7.5 L8.275,14.3304135 L17.375,14.3304135 Z" id="Path" fill="#FFFFFF"></path>
                    <path d="M8.275,16 L8.275,16.7697368 C8.275,17.1948508 8.65695707,17.7021601 9.128125,17.7021601 L16.521875,17.7021601 C16.9930429,17.7021601 17.375,17.1948508 17.375,16.7697368 L17.375,16 L8.275,16 Z" id="Path" fill="#FFFFFF"></path>
                </g>
            </g>
        </g>
    </g>
</svg>