<?xml version="1.0" encoding="utf-8"?>
<!-- Generator: Adobe Illustrator 23.0.2, SVG Export Plug-In . SVG Version: 6.00 Build 0)  -->
<svg version="1.1" id="Layer_1" xmlns="http://www.w3.org/2000/svg" xmlns:xlink="http://www.w3.org/1999/xlink" x="0px" y="0px"
	 viewBox="0 0 141.1 32" style="enable-background:new 0 0 141.1 32;" xml:space="preserve">
<style type="text/css">
	.st0{fill:#1D2C3C;}
</style>
<g>
	<g>
		<g>
			<path class="st0" d="M12.2,24.4C5.5,24.4,0,18.9,0,12.2S5.5,0,12.2,0s12.2,5.5,12.2,12.2S18.9,24.4,12.2,24.4z M12.2,1.9
				C6.5,1.9,1.9,6.5,1.9,12.2s4.6,10.3,10.3,10.3s10.3-4.6,10.3-10.3S17.9,1.9,12.2,1.9z"/>
		</g>
		<g>
			<path class="st0" d="M7.4,17l-1.8-0.8v-0.3h2.2c0,0,1.1-1.5,1.7-2.2c0.6-0.7,1.3-1.6,1.3-1.6l-6-2.7L5.1,9l7.7,1c0,0,2.2-2.3,3-3
				c0.3-0.3,1.5-1,1.9-0.5l0.1,0.1c0.5,0.5-0.2,1.6-0.5,1.9c-0.7,0.8-3,3-3,3l1.1,7.7L15,19.6l-2.7-6c0,0-0.9,0.8-1.6,1.3
				c-0.7,0.6-2.2,1.7-2.2,1.7v2.2H8.2L7.4,17L7.4,17z"/>
		</g>
		<g>
			<g>
				<path class="st0" d="M12.2,32c-1.2,0-2.5-0.1-3.7-0.4C8,31.5,7.7,31,7.8,30.5c0.1-0.5,0.6-0.9,1.1-0.8c2.2,0.4,4.4,0.4,6.6,0
					c0.5-0.1,1,0.2,1.1,0.8c0.1,0.5-0.2,1-0.8,1.1C14.7,31.9,13.4,32,12.2,32z"/>
			</g>
			<g>
				<path class="st0" d="M12.2,28.2c-1.7,0-3.3-0.3-4.9-0.8c-0.5-0.2-0.8-0.7-0.6-1.2c0.2-0.5,0.7-0.8,1.2-0.6
					c2.8,0.9,5.8,0.9,8.6,0c0.5-0.2,1.1,0.1,1.2,0.6c0.2,0.5-0.1,1.1-0.6,1.2C15.5,27.9,13.9,28.2,12.2,28.2z"/>
			</g>
		</g>
	</g>
	<g>
		<path class="st0" d="M33.8,9.5V7.4H46v2.1h-4.9v14.3h-2.4V9.5H33.8z"/>
		<path class="st0" d="M46.3,23.8V12.2h2.2v1.6c0.7-1.1,1.7-1.7,3.1-1.7c0.2,0,0.5,0,0.8,0.1v2.3c-0.2,0-0.4-0.1-0.6-0.1
			c-0.2,0-0.3,0-0.4,0c-1.1,0-1.9,0.4-2.4,1.3c-0.1,0.1-0.1,0.3-0.2,0.4c-0.1,0.1-0.1,0.3-0.1,0.5s-0.1,0.3-0.1,0.4s0,0.3,0,0.4
			s0,0.2,0,0.4c0,0.2,0,0.3,0,0.5v5.5H46.3L46.3,23.8z"/>
		<path class="st0" d="M53.6,18c0-0.8,0.1-1.5,0.3-2.3c0.2-0.7,0.6-1.4,1-1.9s1-1,1.7-1.4c0.7-0.3,1.4-0.5,2.2-0.5
			c1.7,0,3,0.6,3.9,1.7v-1.4h2.2v11.6h-2.2v-1.3c-0.5,0.6-1.1,1-1.7,1.3s-1.3,0.4-2.2,0.4c-0.8,0-1.6-0.2-2.2-0.5
			c-0.6-0.4-1.2-0.8-1.6-1.4c-0.4-0.6-0.8-1.2-1-2C53.7,19.5,53.6,18.8,53.6,18z M56,16.5c-0.1,0.4-0.2,0.7-0.2,1.1s0,0.8,0,1.1
			c0,0.4,0.1,0.7,0.3,1.1c0.1,0.3,0.3,0.6,0.5,0.9c0.3,0.4,0.6,0.7,1,0.9c0.4,0.2,0.9,0.3,1.5,0.3c1.1,0,2-0.4,2.6-1.1
			c0.6-0.8,0.9-1.7,0.9-2.8c0-0.5-0.1-1.1-0.2-1.6c-0.1-0.5-0.4-0.9-0.7-1.3c-0.3-0.4-0.7-0.7-1.1-0.9c-0.4-0.2-0.9-0.3-1.5-0.3
			c-0.4,0-0.8,0.1-1.2,0.2c-0.3,0.1-0.6,0.3-0.9,0.5c-0.3,0.2-0.5,0.5-0.6,0.8C56.3,15.9,56.1,16.2,56,16.5z"/>
		<path class="st0" d="M66.8,12.2h2.4l2.9,8.3l2.8-8.3h2.3L73,23.8h-2L66.8,12.2z"/>
		<path class="st0" d="M78.2,17.9c0-0.6,0.1-1.1,0.2-1.7c0.1-0.5,0.3-1,0.5-1.4s0.5-0.8,0.8-1.1s0.6-0.6,1-0.9
			c0.5-0.3,1-0.6,1.5-0.7s1.1-0.2,1.7-0.2c0.5,0,1,0.1,1.5,0.2c0.5,0.1,1,0.4,1.5,0.7s0.9,0.7,1.3,1.3c0.4,0.5,0.6,1.2,0.8,1.9
			c0.1,0.6,0.2,1.4,0.2,2.2v0.3h-8.6c0,1.1,0.4,2,1,2.7c0.5,0.6,1.3,0.9,2.4,0.9c0.3,0,0.6,0,0.9-0.1s0.5-0.2,0.8-0.3
			s0.4-0.3,0.6-0.5s0.3-0.4,0.4-0.7H89c-0.4,0.9-0.8,1.6-1.3,2.1s-1,0.9-1.6,1.1C85.7,23.9,85.3,24,85,24c-0.3,0.1-0.7,0.1-1.1,0.1
			c-1.7,0-3.1-0.6-4.2-1.7C78.7,21.4,78.2,19.8,78.2,17.9z M86.7,16.8c-0.1-0.9-0.4-1.6-0.9-2.1c-0.6-0.5-1.2-0.8-2-0.8
			s-1.5,0.3-2,0.8c-0.6,0.5-0.9,1.2-1,2.1H86.7L86.7,16.8z"/>
		<path class="st0" d="M96.7,23.8V7.4h6.6c0.5,0,1,0.1,1.4,0.2c0.5,0.1,0.9,0.3,1.3,0.5c0.4,0.2,0.8,0.5,1.1,0.8
			c0.3,0.3,0.6,0.7,0.9,1.1c0.5,0.8,0.7,1.7,0.7,2.8c0,1-0.2,1.9-0.7,2.8c-0.5,0.8-1.2,1.5-2,1.9s-1.7,0.7-2.7,0.7h-4.2V24
			L96.7,23.8L96.7,23.8z M99.1,15.9h4.2c1,0,1.7-0.3,2.3-0.9s0.9-1.4,0.9-2.3c0-0.9-0.3-1.7-0.9-2.3s-1.4-0.9-2.3-0.9h-4.2V15.9z"/>
		<path class="st0" d="M109.5,17.9c0-0.6,0.1-1.1,0.2-1.7c0.1-0.5,0.3-1,0.5-1.4s0.5-0.8,0.8-1.1s0.6-0.6,1-0.9
			c0.5-0.3,1-0.6,1.5-0.7c0.5-0.2,1.1-0.2,1.7-0.2c0.5,0,1,0.1,1.5,0.2c0.5,0.1,1,0.4,1.5,0.7s0.9,0.7,1.3,1.3
			c0.4,0.5,0.6,1.2,0.8,1.9c0.1,0.6,0.2,1.4,0.2,2.2v0.3h-8.6c0,1.1,0.4,2,1,2.7c0.5,0.6,1.3,0.9,2.4,0.9c0.3,0,0.6,0,0.9-0.1
			s0.5-0.2,0.8-0.3c0.2-0.1,0.4-0.3,0.6-0.5s0.3-0.4,0.4-0.7h2.4c-0.4,0.9-0.8,1.6-1.3,2.1s-1,0.9-1.6,1.1c-0.4,0.2-0.8,0.3-1.1,0.3
			c-0.3,0.1-0.7,0.1-1.1,0.1c-1.7,0-3.1-0.6-4.2-1.7C110,21.4,109.5,19.8,109.5,17.9z M118,16.8c-0.1-0.9-0.4-1.6-0.9-2.1
			c-0.6-0.5-1.2-0.8-2-0.8s-1.5,0.3-2,0.8c-0.6,0.5-0.9,1.2-1,2.1H118L118,16.8z"/>
		<path class="st0" d="M123.1,23.8V12.2h2.2v1.6c0.7-1.1,1.7-1.7,3.1-1.7c0.2,0,0.5,0,0.8,0.1v2.3c-0.2,0-0.4-0.1-0.6-0.1
			c-0.2,0-0.3,0-0.4,0c-1.1,0-1.9,0.4-2.4,1.3c-0.1,0.1-0.1,0.3-0.2,0.4s-0.1,0.3-0.1,0.5s-0.1,0.3-0.1,0.4s0,0.3,0,0.4s0,0.2,0,0.4
			c0,0.2,0,0.3,0,0.5v5.5H123.1L123.1,23.8z"/>
		<path class="st0" d="M131.3,23.8V7.4h2.2v9.4l4.6-4.6h2.9l-5.4,5.3l5.5,6.2H138l-4.5-5.3v5.3L131.3,23.8L131.3,23.8z"/>
		<path id="Shape_28_" class="st0" d="M91.8,21.5c0,0.8,0.2,1.3,0.7,1.8c0.4,0.4,0.9,0.6,1.6,0.6v-3.2v-6.1V7.4h-2.2L91.8,21.5
			L91.8,21.5z"/>
	</g>
</g>
</svg>
