<svg width="14" height="18" viewBox="0 0 14 18" fill="none" xmlns="http://www.w3.org/2000/svg">
<path fill-rule="evenodd" clip-rule="evenodd" d="M4.50004 6.49999H9.50004V4.83332C9.50004 2.99237 7.83337 2.33332 7.00004 2.33332C6.16671 2.33332 4.50004 2.99237 4.50004 4.83332V6.49999ZM11.1667 6.49999C12.5474 6.49999 13.6667 7.61928 13.6667 8.99999V14.8333C13.6667 16.214 12.5474 17.3333 11.1667 17.3333H2.83337C1.45266 17.3333 0.333374 16.214 0.333374 14.8333V8.99999C0.333374 7.61928 1.45266 6.49999 2.83337 6.49999V4.83332C2.83337 2.0719 5.07122 0.666656 7.00004 0.666656C8.92887 0.666656 11.1667 2.0719 11.1667 4.83332V6.49999ZM2.83337 8.16666C2.37314 8.16666 2.00004 8.53975 2.00004 8.99999V14.8333C2.00004 15.2936 2.37314 15.6667 2.83337 15.6667H11.1667C11.6269 15.6667 12 15.2936 12 14.8333V8.99999C12 8.53975 11.6269 8.16666 11.1667 8.16666H2.83337ZM7.00004 11.5C7.46028 11.5 7.83337 11.8731 7.83337 12.3333V13.1667C7.83337 13.6269 7.46028 14 7.00004 14C6.5398 14 6.16671 13.6269 6.16671 13.1667V12.3333C6.16671 11.8731 6.5398 11.5 7.00004 11.5Z" fill="#003097"/>
</svg>
