<svg width="16" height="18" viewBox="0 0 16 18" fill="none" xmlns="http://www.w3.org/2000/svg">
<path fill-rule="evenodd" clip-rule="evenodd" d="M4.39956 2.69956L4.39956 0.900445C4.39956 0.403388 4.80251 0 5.29956 0C5.79662 0 6.19956 0.402944 6.19956 0.900001V2.7H9.79956C9.79956 2.69985 9.79956 2.69971 9.79956 2.69956V0.900445C9.79956 0.403388 10.2025 0 10.6996 0C11.1966 0 11.5996 0.402944 11.5996 0.900001V2.7L14.2996 2.7C14.7966 2.7 15.1996 3.10295 15.1996 3.6C15.1996 4.09706 14.7966 4.5 14.2996 4.5H1.69956C1.2025 4.5 0.799561 4.09706 0.799561 3.6C0.799561 3.10295 1.2025 2.7 1.69956 2.7H4.39956V2.69956ZM4.61242 7.2L5.96242 9.90001H10.0375L11.3875 7.2H4.61242ZM3.15619 5.4C2.48715 5.4 2.052 6.10409 2.35121 6.7025L4.60121 11.2025C4.75366 11.5074 5.0653 11.7 5.40619 11.7H7.09921V13.5772C7.09921 14.0546 7.28885 14.5124 7.62642 14.85L10.5128 17.7364C10.8643 18.0879 11.4341 18.0879 11.7856 17.7364C12.1371 17.3849 12.1371 16.8151 11.7856 16.4636L8.89921 13.5772V11.7H10.5937C10.9346 11.7 11.2463 11.5074 11.3987 11.2025L13.6487 6.7025C13.9479 6.10408 13.5128 5.4 12.8437 5.4H3.15619Z" fill="#003097"/>
</svg>
