<svg width="16" height="18" viewBox="0 0 16 18" fill="none" xmlns="http://www.w3.org/2000/svg">
<path fill-rule="evenodd" clip-rule="evenodd" d="M7.16641 3.16666C7.16641 2.70642 7.53951 2.33332 7.99975 2.33332C8.45998 2.33332 8.83308 2.70642 8.83308 3.16666V3.84457V4.45111L9.41024 4.63756C10.0318 4.83835 10.5962 5.16883 11.0711 5.59793L11.5212 6.00454L12.0464 5.70128L12.6349 5.36154C13.0335 5.13142 13.5431 5.26798 13.7732 5.66656C14.0034 6.06514 13.8668 6.57479 13.4682 6.80491L12.8808 7.14406L12.3562 7.44694L12.4824 8.0394C12.5483 8.34844 12.5831 8.66969 12.5831 8.99999C12.5831 9.33024 12.5483 9.65143 12.4825 9.96043L12.3563 10.5529L12.8808 10.8557L13.4682 11.1949C13.8668 11.425 14.0034 11.9346 13.7732 12.3332C13.5431 12.7318 13.0335 12.8684 12.6349 12.6382L12.0466 12.2986L11.5213 11.9953L11.0712 12.4019C10.5963 12.8311 10.0319 13.1616 9.41024 13.3624L8.83308 13.5489V14.1554V14.8333C8.83308 15.2936 8.45999 15.6667 7.99975 15.6667C7.53951 15.6667 7.16641 15.2936 7.16641 14.8333V14.1554V13.5489L6.58925 13.3624C5.96763 13.1616 5.40323 12.8311 4.92826 12.4019L4.4782 11.9953L3.95291 12.2986L3.36459 12.6382C2.96602 12.8684 2.45636 12.7318 2.22624 12.3332C1.99612 11.9346 2.13268 11.425 2.53126 11.1949L3.11865 10.8557L3.64323 10.5529L3.51703 9.96043C3.4512 9.65143 3.41641 9.33024 3.41641 8.99999C3.41641 8.66969 3.45122 8.34845 3.51706 8.0394L3.64329 7.44694L3.11869 7.14406L2.53126 6.80491C2.13268 6.5748 1.99612 6.06514 2.22624 5.66656C2.45636 5.26798 2.96602 5.13142 3.36459 5.36154L3.95304 5.70128L4.47831 6.00454L4.92837 5.59794C5.40332 5.16883 5.96768 4.83835 6.58925 4.63755L7.16641 4.4511V3.84457V3.16666ZM7.99975 0.666656C6.61904 0.666656 5.49975 1.78594 5.49975 3.16666V3.27027C5.06828 3.45876 4.66244 3.69441 4.2887 3.97057L4.19793 3.91816C3.0022 3.22781 1.47322 3.63749 0.782864 4.83323C0.0925079 6.02896 0.502196 7.55793 1.69793 8.24829L1.78851 8.30059C1.76288 8.53042 1.74975 8.7638 1.74975 8.99999C1.74975 9.23612 1.76288 9.46944 1.78849 9.69921L1.69793 9.7515C0.502196 10.4419 0.0925076 11.9708 0.782864 13.1666C1.47322 14.3623 3.0022 14.772 4.19793 14.0816L4.28856 14.0293C4.66233 14.3055 5.06822 14.5412 5.49975 14.7297V14.8333C5.49975 16.214 6.61904 17.3333 7.99975 17.3333C9.38046 17.3333 10.4997 16.214 10.4997 14.8333V14.7297C10.9313 14.5412 11.3372 14.3055 11.7109 14.0293L11.8016 14.0816C12.9973 14.772 14.5263 14.3623 15.2166 13.1666C15.907 11.9708 15.4973 10.4419 14.3016 9.7515L14.211 9.69921C14.2366 9.46944 14.2497 9.23612 14.2497 8.99999C14.2497 8.7638 14.2366 8.53042 14.211 8.30059L14.3016 8.24829C15.4973 7.55793 15.907 6.02896 15.2166 4.83323C14.5263 3.63749 12.9973 3.22781 11.8016 3.91816L11.7108 3.97057C11.3371 3.69441 10.9312 3.45876 10.4997 3.27027V3.16666C10.4997 1.78594 9.38046 0.666656 7.99975 0.666656ZM7.1664 8.99999C7.1664 8.53975 7.5395 8.16666 7.99973 8.16666C8.45997 8.16666 8.83307 8.53975 8.83307 8.99999C8.83307 9.46023 8.45997 9.83332 7.99973 9.83332C7.5395 9.83332 7.1664 9.46023 7.1664 8.99999ZM7.99973 6.49999C6.61902 6.49999 5.49973 7.61928 5.49973 8.99999C5.49973 10.3807 6.61902 11.5 7.99973 11.5C9.38044 11.5 10.4997 10.3807 10.4997 8.99999C10.4997 7.61928 9.38044 6.49999 7.99973 6.49999Z" fill="#003097"/>
</svg>
