<svg width="16" height="16" viewBox="0 0 16 16" fill="none" xmlns="http://www.w3.org/2000/svg">
<path fill-rule="evenodd" clip-rule="evenodd" d="M11.7187 10.542C11.7315 10.5533 11.744 10.5651 11.7562 10.5773L15.2562 14.0773C15.5816 14.4027 15.5816 14.9303 15.2562 15.2558C14.9307 15.5812 14.4031 15.5812 14.0777 15.2558L10.5777 11.7558C10.5655 11.7436 10.5537 11.7311 10.5424 11.7183C9.49072 12.5223 8.17625 12.9998 6.75024 12.9998C3.29846 12.9998 0.500244 10.2016 0.500244 6.74985C0.500244 3.29807 3.29846 0.499847 6.75024 0.499847C10.202 0.499847 13.0002 3.29807 13.0002 6.74985C13.0002 8.17586 12.5227 9.49032 11.7187 10.542ZM6.75024 11.3332C9.28155 11.3332 11.3336 9.28115 11.3336 6.74985C11.3336 4.21854 9.28155 2.16651 6.75024 2.16651C4.21894 2.16651 2.16691 4.21854 2.16691 6.74985C2.16691 9.28115 4.21894 11.3332 6.75024 11.3332Z" fill="#003097"/>
</svg>
