<svg width="16" height="18" viewBox="0 0 16 18" fill="none" xmlns="http://www.w3.org/2000/svg">
<path fill-rule="evenodd" clip-rule="evenodd" d="M9.66667 0.666687C10.5871 0.666687 11.3333 1.41288 11.3333 2.33335V4.00002H13.8333C14.7538 4.00002 15.5 4.74621 15.5 5.66669V14C15.5 14.9205 14.7538 15.6667 13.8333 15.6667H13V16.5C13 16.9274 12.6783 17.2796 12.2639 17.3277L12.1667 17.3334C11.7064 17.3334 11.3333 16.9603 11.3333 16.5V15.6667H4.66667V16.5C4.66667 16.9274 4.34497 17.2796 3.93052 17.3277L3.83333 17.3334C3.3731 17.3334 3 16.9603 3 16.5V15.6667H2.16667C1.24619 15.6667 0.5 14.9205 0.5 14V5.66669C0.5 4.74621 1.24619 4.00002 2.16667 4.00002H4.66667V2.33335C4.66667 1.41288 5.41286 0.666687 6.33333 0.666687H9.66667ZM13.8333 5.66669H2.16667V14H13.8333V5.66669ZM5.5 7.33335C5.96024 7.33335 6.33333 7.70645 6.33333 8.16669V11.5C6.33333 11.9603 5.96024 12.3334 5.5 12.3334C5.03976 12.3334 4.66667 11.9603 4.66667 11.5V8.16669C4.66667 7.70645 5.03976 7.33335 5.5 7.33335ZM10.5 7.33335C10.9602 7.33335 11.3333 7.70645 11.3333 8.16669V11.5C11.3333 11.9603 10.9602 12.3334 10.5 12.3334C10.0398 12.3334 9.66667 11.9603 9.66667 11.5V8.16669C9.66667 7.70645 10.0398 7.33335 10.5 7.33335ZM9.66667 2.33335H6.33333V4.00002H9.66667V2.33335Z" fill="#003097"/>
</svg>
