<svg width="18" height="19" viewBox="0 0 18 19" fill="none" xmlns="http://www.w3.org/2000/svg">
<path fill-rule="evenodd" clip-rule="evenodd" d="M15.0457 1.75083C15.1032 2.02604 15.018 2.3117 14.8192 2.51051L11.8836 5.44613C11.5016 5.82807 11.5016 6.44732 11.8836 6.82926C12.2655 7.21121 12.8848 7.21121 13.2667 6.82926L16.2023 3.89364C16.4012 3.69483 16.6868 3.60968 16.962 3.66718C17.2372 3.72468 17.4649 3.91708 17.5675 4.17885C18.3208 6.10115 17.9221 8.37341 16.3665 9.92901C14.9102 11.3853 12.826 11.8278 10.9883 11.2601L4.31492 17.9335C3.33861 18.9098 1.7557 18.9098 0.779386 17.9335C-0.196924 16.9572 -0.196925 15.3742 0.779386 14.3979L7.45273 7.7246C6.88508 5.88691 7.32756 3.80266 8.78384 2.34638C10.3394 0.790784 12.6117 0.392081 14.534 1.14536C14.7958 1.24795 14.9882 1.47561 15.0457 1.75083ZM12.5299 2.44277C11.5989 2.45415 10.6719 2.81533 9.96235 3.52489C8.85984 4.62741 8.59851 6.25489 9.18326 7.60652C9.31897 7.92022 9.24937 8.28498 9.00768 8.52666L1.9579 15.5764C1.63246 15.9019 1.63246 16.4295 1.9579 16.755C2.28334 17.0804 2.81097 17.0804 3.13641 16.755L10.1862 9.70517C10.4279 9.46349 10.7926 9.39389 11.1063 9.5296C12.458 10.1143 14.0854 9.85301 15.188 8.7505C15.8975 8.04094 16.2587 7.11399 16.2701 6.18293L14.4452 8.00777C13.4124 9.04059 11.7379 9.04059 10.7051 8.00778C9.67226 6.97496 9.67226 5.30043 10.7051 4.26762L12.5299 2.44277Z" fill="#003097"/>
</svg>
