<svg width="16" height="20" viewBox="0 0 16 20" fill="none" xmlns="http://www.w3.org/2000/svg">
<path fill-rule="evenodd" clip-rule="evenodd" d="M8 1C11.866 1 15 4.00233 15 7.70588C15 10.1871 13.5883 12.3553 11.5 13.5176V15.5294C11.5 16.1467 10.9777 16.6471 10.3333 16.6471H5.66667C5.02233 16.6471 4.5 16.1467 4.5 15.5294V13.5176C2.41167 12.3553 1 10.1871 1 7.70588C1 4.00233 4.13401 1 8 1ZM10.3333 17.7647V18.8824C10.3333 19.4996 9.811 20 9.16667 20H6.83333C6.189 20 5.66667 19.4996 5.66667 18.8824V17.7647H10.3333ZM6.83333 14.4118H9.16667V12.0312C11.185 11.5394 12.6667 9.78471 12.6667 7.70588C12.6667 5.23685 10.5773 3.23529 8 3.23529C5.42267 3.23529 3.33333 5.23685 3.33333 7.70588C3.33333 9.78471 4.815 11.5394 6.83333 12.0312V14.4118Z" fill="#003097" stroke="white" stroke-width="0.5"/>
</svg>
