<svg width="16" height="16" viewBox="0 0 16 16" fill="none" xmlns="http://www.w3.org/2000/svg">
<path d="M8.48547 9.88214L11.2032 14.4116C11.33 14.6228 11.5469 14.7639 11.7914 14.794C12.0359 14.8241 12.2807 14.7399 12.4549 14.5657L13.382 13.6386C13.5864 13.4342 13.6646 13.1355 13.5867 12.8572L11.8197 6.54798L14.3091 4.05862C14.9657 3.40207 14.9616 2.3436 14.3091 1.69112L13.7434 2.25681L14.3091 1.69111C13.6516 1.03359 12.5937 1.03901 11.9416 1.69112L9.45217 4.18048L3.14285 2.41354C2.86453 2.33559 2.56581 2.41384 2.36143 2.61821L1.43432 3.5453C1.26012 3.7195 1.17589 3.96424 1.20599 4.20874C1.23609 4.45325 1.37716 4.67025 1.58841 4.79699L6.11794 7.51466L3.94719 9.68536L2.56202 9.22364C2.27455 9.12782 1.95762 9.20264 1.74336 9.4169L1.43432 9.72593C1.28429 9.87596 1.2 10.0794 1.2 10.2916C1.2 10.5038 1.28429 10.7073 1.43432 10.8573L5.14277 14.5657C5.45519 14.8781 5.96171 14.8781 6.27413 14.5657L6.58317 14.2567C6.79744 14.0424 6.87226 13.7255 6.77643 13.438L6.31471 12.0529L8.48547 9.88214Z" stroke="#003097" stroke-width="1.6" stroke-linejoin="round"/>
</svg>
