<svg width="18" height="12" viewBox="0 0 18 12" fill="none" xmlns="http://www.w3.org/2000/svg">
<path d="M17.0788 1.71865C16.9725 1.6557 16.8412 1.65324 16.7327 1.71237L12.9469 3.77952V2.5392C12.9458 1.57432 12.1639 0.792413 11.1991 0.791321H2.49788C1.533 0.792413 0.751092 1.57432 0.75 2.5392V9.4406C0.751092 10.4055 1.533 11.1874 2.49788 11.1885H11.1991C12.1639 11.1874 12.9458 10.4055 12.9469 9.4406V8.22282L16.7329 10.29C16.8412 10.3491 16.9727 10.3468 17.0788 10.2838C17.185 10.2207 17.25 10.1064 17.25 9.98313V2.01921C17.25 1.89576 17.1849 1.7816 17.0788 1.71865ZM12.2475 9.44074C12.247 10.0197 11.7778 10.4888 11.1988 10.4895H2.49788C1.9189 10.4888 1.44984 10.0197 1.44915 9.44074V2.5392C1.44984 1.96035 1.9189 1.49116 2.49788 1.49047H11.1991C11.7779 1.49116 12.2471 1.96035 12.2478 2.5392L12.2475 9.44074ZM16.5508 9.39404L12.9469 7.42631V4.57603L16.5508 2.60843V9.39404Z" fill="#003097" stroke="#003097" stroke-width="0.7"/>
</svg>
