<?xml version="1.0" encoding="UTF-8"?> <svg xmlns="http://www.w3.org/2000/svg" xmlns:xlink="http://www.w3.org/1999/xlink" width="663px" height="125px" viewBox="0 0 663 125"><!-- Generator: Sketch 55.2 (78181) - https://sketchapp.com --><title>FlexiPerk_Logo</title><desc>Created with Sketch.</desc><g id="Design" stroke="none" stroke-width="1" fill="none" fill-rule="evenodd"><g id="Product-page" transform="translate(-133.000000, -9003.000000)" fill="#FFFFFF"><g id="FlexiPerk-9" transform="translate(0.000000, 8845.000000)"><g id="FlexiPerk_Logo" transform="translate(133.000000, 158.000000)"><g><path d="M98.2319302,107.090097 C98.2319302,112.827922 100.289908,117.258117 104.414791,120.377435 C108.12824,123.188312 113.159574,124.720779 119.486882,124.999188 L119.486882,100.598214 L119.486882,54.4275974 L119.486882,0.159721591 L98.2319302,0.159721591 L98.2319302,107.090097 Z" id="Path" fill-rule="nonzero"></path><polygon id="Path" fill-rule="nonzero" points="0 122.502435 0 0.151844968 80.2664967 0.151844968 80.2664967 20.8285714 22.2774492 20.8285714 22.2774492 49.1945617 76.2695886 49.1945617 76.2695886 70.0418831 22.2774492 70.0418831 22.2774492 122.502435"></polygon><path d="M136.795483,78.7566558 C136.795483,71.3533279 137.999758,64.7595779 140.409929,58.9772727 C142.819289,53.1969968 146.064499,48.5112013 150.145561,44.9219968 C154.226622,41.3336851 158.746707,38.642776 163.706629,36.8481331 C168.666551,35.0534903 173.980289,34.1571429 179.649466,34.1571429 C183.560923,34.1571429 187.414763,34.699513 191.212608,35.7801948 C195.010454,36.8629058 198.723903,38.5707792 202.351333,40.905763 C205.978763,43.2417208 209.181775,46.4592532 211.959558,50.5603084 C214.73653,54.6612825 216.749064,59.4466721 217.996348,64.9153409 C219.017222,69.3013799 219.526847,74.6270292 219.526847,80.8925325 L219.526847,85.0779221 L159.241726,85.0779221 C159.752163,92.1428571 162.018698,97.7816558 166.044576,101.99513 C169.671195,105.641234 174.489103,107.464286 180.499113,107.464286 C185.146605,107.464286 188.859242,106.254058 191.637837,103.831981 C194.414809,101.412338 196.342135,98.2938312 197.419814,94.476461 L219.356431,94.476461 C216.295432,105.015422 211.194308,112.704545 204.051437,117.546266 C196.794143,122.501623 188.661235,124.978896 179.647843,124.978896 C166.43978,124.978896 156.010311,120.82224 148.358625,112.505682 C140.650135,104.247565 136.795483,92.9975649 136.795483,78.7566558 Z M197.251021,69.1021916 C196.570979,63.6916396 194.556823,59.3913961 191.21342,56.2005682 C187.868394,53.0688312 183.844138,51.500974 179.139841,51.500974 C168.991965,51.500974 162.672771,57.3680195 160.178203,69.1021916 L197.251021,69.1021916 Z" id="Shape" fill-rule="nonzero"></path><polygon id="Path" fill-rule="nonzero" points="225.820072 122.502435 251.413333 78.756737 226.160905 36.2081981 250.478479 36.2081981 264.252973 61.0716721 277.347426 36.2081981 300.984958 36.2081981 276.241344 78.756737 302.260645 122.502435 278.027468 122.502435 263.572931 96.101461 249.798437 122.502435"></polygon><path d="M315.609099,22.0246753 L315.609099,0.151844968 L336.69607,0.151844968 L336.69607,22.0246753 L315.609099,22.0246753 Z M315.609099,122.502435 L315.609099,36.2071429 L336.69607,36.2071429 L336.69607,122.502435 L315.609099,122.502435 Z" id="Shape" fill-rule="nonzero"></path><path d="M357.363492,122.351461 L357.363492,0 L402.343619,0 C412.999498,0 421.784857,3.67406656 428.700507,11.0221591 C435.615345,18.4275162 439.074793,27.4835227 439.074793,38.1921266 C439.074793,48.9579545 435.615345,57.9862825 428.700507,65.2772727 C421.784857,72.6254058 412.999498,76.2994318 402.343619,76.2994318 L367.481343,76.2994318 L367.481343,122.351461 L357.363492,122.351461 L357.363492,122.351461 Z M367.481343,67.5836039 L402.174015,67.5836039 C410.506553,67.5836039 417.278567,64.7931006 422.495736,59.2099838 C427.596859,53.6861201 430.148233,46.6801136 430.148233,38.1921266 C430.148233,29.7632305 427.566834,22.7573052 422.408905,17.1741883 C417.19417,11.5931006 410.448936,8.80154221 402.174015,8.80154221 L367.481343,8.80154221 L367.481343,67.5836039 Z" id="Shape" fill-rule="nonzero"></path><path d="M447.748164,79.4597403 C447.748164,73.6488636 448.428206,68.0254058 449.788289,62.5853084 C451.149184,57.1461851 453.302108,52.3193994 456.251119,48.1030032 C459.197695,43.8885552 462.995541,40.5133117 467.643845,37.9780844 C472.291337,35.4439123 477.903709,34.1758929 484.479338,34.1758929 C488.955602,34.1758929 492.953078,34.7457792 496.46852,35.8847403 C499.983151,37.0245942 503.057945,38.605276 505.693715,40.6267045 C508.329485,42.6491071 510.568428,45.0698864 512.411357,47.8890422 C514.252663,50.7081981 515.755572,53.7846591 516.918459,57.1165584 C518.078912,60.4484578 518.916386,63.9943182 519.426011,67.7532468 C519.937259,71.5120942 520.192072,75.357711 520.192072,79.2871753 L457.185973,79.2871753 C457.185973,82.25 457.41076,85.2548701 457.865203,88.3019481 C458.318835,91.3498377 459.013483,94.3116883 459.948338,97.1883117 C460.884004,100.064123 462.088278,102.755682 463.562783,105.262175 C465.036477,107.769481 466.821789,109.976461 468.919531,111.88474 C471.016461,113.793019 473.426633,115.288149 476.146799,116.37013 C478.866966,117.452922 481.956367,117.992695 485.414192,117.992695 C497.26055,117.992695 505.196262,113.038149 509.222952,103.125812 L518.490345,103.125812 C515.71175,110.361201 511.475692,115.814123 505.778111,119.488636 C500.082154,123.163149 493.292288,125 485.414192,125 C478.725764,125 473.000592,123.774351 468.238678,121.324675 C463.476764,118.877435 459.579914,115.57224 456.547318,111.413961 C453.513911,107.256494 451.289574,102.413961 449.872685,96.8896104 C448.455797,91.3644481 447.748164,85.5551948 447.748164,79.4597403 Z M510.243015,72.2831981 C510.016605,68.4671266 509.335752,64.6935065 508.202078,60.9622565 C507.067594,57.2329545 505.424295,53.9000812 503.271371,50.9655032 C501.116012,48.0319805 498.437233,45.6684253 495.236655,43.8747565 C492.033643,42.0801136 488.277184,41.1838474 483.971335,41.1838474 C479.831846,41.1838474 476.090805,42.0525162 472.746591,43.7899351 C469.401565,45.5284091 466.709802,47.9333604 464.669677,51.0089286 C462.571935,54.0853896 460.928636,57.4034903 459.737346,60.9632305 C458.547679,64.5238636 457.810832,68.2975649 457.527617,72.2841721 L510.243015,72.2841721 L510.243015,72.2831981 Z" id="Shape" fill-rule="nonzero"></path><path d="M543.319168,122.351461 L543.319168,36.5690747 L552.076124,36.5690747 L552.076124,53.0589286 C554.34347,47.3644481 557.800483,43.0494318 562.449599,40.1149351 C567.097091,37.1814123 572.568261,35.7141234 578.860674,35.7141234 C579.085461,35.7141234 579.440089,35.74375 579.922935,35.7999188 C580.404158,35.8581169 580.759597,35.8857143 580.986007,35.8857143 L580.986007,45.3686688 C580.645175,45.3124188 580.206151,45.2700487 579.668122,45.2405032 C579.128471,45.2128247 578.462225,45.1980519 577.669384,45.1980519 C573.021892,45.1980519 568.797195,46.3241883 565.000972,48.5733766 C561.202315,50.823539 558.168907,53.9987013 555.903184,58.0996753 C554.768699,60.1497565 553.89065,62.713474 553.267414,65.788961 C552.641743,68.8083604 552.302534,71.257711 552.24654,73.1370942 C552.188923,74.1054383 552.146725,75.2877435 552.119133,76.6830357 C552.089919,78.0793019 552.076124,79.6608766 552.076124,81.4261364 L552.076124,122.351461 L543.319168,122.351461 L543.319168,122.351461 Z" id="Path" fill-rule="nonzero"></path><polygon id="Path" fill-rule="nonzero" points="599.862437 122.350649 599.862437 0 609.640267 0 609.640267 76.6405844 649.688875 36.5690747 660.657995 36.5690747 621.29024 76.1268669 662.189306 122.350649 649.688875 122.350649 609.640267 77.7508929 609.640267 122.350649"></polygon></g></g></g></g></g></svg> 