<svg width="18" height="18" viewBox="0 0 18 18" fill="none" xmlns="http://www.w3.org/2000/svg">
<path d="M17.6578 15.9156L13.1232 11.395C13.959 10.2076 14.4606 8.77023 14.4606 7.20783C14.4606 3.22894 11.2216 0 7.23028 0C3.239 0 0 3.22894 0 7.20783C0 11.1867 3.239 14.4157 7.23028 14.4157C8.79754 14.4157 10.2394 13.9157 11.4305 13.0824L15.9651 17.6029C16.195 17.8321 16.5084 17.9571 16.801 17.9571C17.1145 17.9571 17.407 17.8321 17.6369 17.6029C18.1175 17.1446 18.1175 16.3947 17.6578 15.9156ZM1.37919 7.20783C1.37919 3.97889 3.99128 1.3749 7.23028 1.3749C10.4693 1.3749 13.0814 3.97889 13.0814 7.20783C13.0814 10.4368 10.4693 13.0408 7.23028 13.0408C3.99128 13.0408 1.37919 10.4368 1.37919 7.20783Z" fill="#79879D"/>
</svg>
