<?xml version="1.0" encoding="UTF-8"?>
<svg width="16px" height="17px" viewBox="0 0 16 17" version="1.1" xmlns="http://www.w3.org/2000/svg" xmlns:xlink="http://www.w3.org/1999/xlink">
    <!-- Generator: Sketch 62 (91390) - https://sketch.com -->
    <title>Language</title>
    <desc>Created with Sketch.</desc>
    <g id="Page-1" stroke="none" stroke-width="1" fill="none" fill-rule="evenodd">
        <g id="Language" transform="translate(0.000000, 0.500000)" fill="#EFF2F7">
            <path d="M9.48297143,14.6942 C10.4198286,13.5713429 11.1098286,12.2642 11.5086857,10.8570571 L14.2312571,10.8570571 C13.3329714,12.8073429 11.5755429,14.2262 9.47982857,14.6942 L9.48297143,14.6942 Z M1.76868571,10.8570571 L4.49154286,10.8570571 C4.88954286,12.2647714 5.58097143,13.5724857 6.51982857,14.6942 C4.4244,14.2262 2.66725714,12.8073429 1.76868571,10.8570571 L1.76868571,10.8570571 Z M6.51982857,1.30562857 C5.58211429,2.4282 4.89097143,3.73562857 4.49154286,5.14277143 L1.76868571,5.14277143 C2.66725714,3.19277143 4.4244,1.77362857 6.51982857,1.30562857 L6.51982857,1.30562857 Z M11.7626857,6.28562857 L14.6401143,6.28562857 C14.9295429,7.4102 14.9295429,8.58962857 14.6401143,9.7142 L11.7626857,9.7142 C11.9495429,8.57905714 11.9495429,7.42077143 11.7626857,6.28562857 L11.7626857,6.28562857 Z M8.00011429,1.39991429 C8.01011429,1.3962 8.02125714,1.3962 8.03125714,1.39991429 C9.08068571,2.44705714 9.86354286,3.73048571 10.3141143,5.14277143 L5.68554286,5.14277143 C6.13868571,3.73448571 6.92268571,2.45505714 7.97125714,1.41134286 C7.97925714,1.4042 7.98925714,1.4002 8.00011429,1.39991429 L8.00011429,1.39991429 Z M1.14296395,7.99991429 C1.14211429,7.42162857 1.21497143,6.84562857 1.35982857,6.28562857 L4.23725714,6.28562857 C4.05068571,7.42077143 4.05068571,8.57905714 4.23725714,9.7142 L1.35982857,9.7142 C1.21497143,9.15448571 1.14211429,8.57848571 1.14296395,7.99991429 L1.14296395,7.99991429 Z M5.39725714,9.7142 C5.18754286,8.58105714 5.18754286,7.41905714 5.39725714,6.28562857 L10.6029714,6.28562857 C10.8124,7.41905714 10.8124,8.58105714 10.6029714,9.7142 L5.39725714,9.7142 Z M7.96868571,14.5884857 L7.96868571,14.5884857 C6.92068571,13.5447714 6.13811429,12.2653429 5.68554286,10.8570571 L10.3141143,10.8570571 C9.86097143,12.2656286 9.07725714,13.5450571 8.02868571,14.5884857 C8.01068571,14.6016286 7.9864,14.6016286 7.96868571,14.5884857 L7.96868571,14.5884857 Z M14.2312571,5.14277143 L11.5086857,5.14277143 C11.1101143,3.73534286 10.4189714,2.42734286 9.47982857,1.30562857 C11.5755429,1.77362857 13.3329714,3.19277143 14.2312571,5.14277143 L14.2312571,5.14277143 Z M8.00011429,-8.57142857e-05 C3.58182857,-8.57142857e-05 0.000114285714,3.58162857 0.000114285714,7.99991429 C0.000114285714,12.4182 3.58182857,15.9999143 8.00011429,15.9999143 C12.4181143,15.9999143 16.0001143,12.4182 16.0001143,7.99991429 C16.0001143,3.58162857 12.4181143,-8.57142857e-05 8.00011429,-8.57142857e-05 L8.00011429,-8.57142857e-05 Z"></path>
        </g>
    </g>
</svg>